<svg height="512" viewBox="0 0 512 512" width="512" xmlns="http://www.w3.org/2000/svg"><g id="flat"><path d="m432 472a8 8 0 0 1 -8-8v-48a8 8 0 0 1 16 0v48a8 8 0 0 1 -8 8z" fill="#a8a8a8"/><path d="m80 472c-4.418 0-8 4.418-8 0v-48a8 8 0 0 1 16 0v48c0 4.418-3.582 0-8 0z" fill="#a8a8a8"/><path d="m136 88h64l32 16v-48a32 32 0 0 0 -32-32h-64a32 32 0 0 0 -32 32 32 32 0 0 0 32 32z" fill="#fbb540"/><path d="m352 72h64v80h-64z" fill="#cbcbcb"/><path d="m456 352v-8.467a16 16 0 0 1 15.526-15.993 16 16 0 0 1 16.474 15.993v21.558a74.909 74.909 0 0 1 -74.909 74.909h-37.091v-32h38.177z" fill="#026ca2"/><path d="m56 352v-8.467a16 16 0 0 0 -15.526-15.993 16 16 0 0 0 -16.474 15.993v21.558a74.909 74.909 0 0 0 74.909 74.909h37.091v-32z" fill="#e82f3e"/><path d="m136 352h32v136h-32z" fill="#ea9d2d"/><path d="m344 344h32v144h-32z" fill="#ea9d2d"/><path d="m320 192h-82a38 38 0 0 0 -38 38v58h8v32h96v-88h20.128a26 26 0 0 0 19.648-8.972l44.224-51.028a16.971 16.971 0 0 0 0-24 16.971 16.971 0 0 0 -24 0z" fill="#0296e5"/><circle cx="88" cy="224" fill="#02a437" r="32"/><circle cx="264" cy="160" fill="#0296e5" r="32"/><path d="m56 291.535v74.642a41.823 41.823 0 0 0 41.823 41.823h38.177l-.558 80h32.558v-96a32 32 0 0 0 -32-32h-32v-56l32 16h72v-32h-64l-30.266-24.213a35.535 35.535 0 0 0 -22.199-7.787 35.536 35.536 0 0 0 -35.535 35.535z" fill="#02a437"/><path d="m104.006 496a8 8 0 0 1 -7.161-4.424l-5.789-11.576h-22.112l-5.789 11.578a8 8 0 1 1 -14.31-7.156l8-16a8 8 0 0 1 7.155-4.422h32a8 8 0 0 1 7.155 4.422l8 16a8 8 0 0 1 -7.149 11.578z" fill="#cbcbcb"/><circle cx="424" cy="224" fill="#ff6268" r="32"/><path d="m456 291.535v74.642a41.823 41.823 0 0 1 -41.823 41.823h-38.177l.558 80h-32.558v-96a32 32 0 0 1 32-32h32v-56l-32 16h-72v-32h64l30.266-24.213a35.535 35.535 0 0 1 22.2-7.787 35.536 35.536 0 0 1 35.534 35.535z" fill="#ff6268"/><path d="m456.006 496a8 8 0 0 1 -7.161-4.424l-5.789-11.576h-22.112l-5.789 11.578a8 8 0 0 1 -14.31-7.156l8-16a8 8 0 0 1 7.155-4.422h32a8 8 0 0 1 7.155 4.422l8 16a8 8 0 0 1 -7.149 11.578z" fill="#cbcbcb"/><path d="m232 328a8 8 0 0 1 -8-8v-80a8 8 0 0 1 16 0v80a8 8 0 0 1 -8 8z" fill="#026ca2"/><path d="m216 352-8 136h32l16-136z" fill="#0296e5"/><path d="m296 352 8 136h-32l-16-136z" fill="#0296e5"/><g fill="#d18d28"><circle cx="200" cy="56" r="8"/><circle cx="168" cy="56" r="8"/><circle cx="136" cy="56" r="8"/></g><path d="m136 320h240v32h-240z" fill="#ea9d2d"/><path d="m136 320h240v16h-240z" fill="#fbb540"/></g></svg>