<svg id="Layer_1" enable-background="new 0 0 512 512" height="512" viewBox="0 0 512 512" width="512" xmlns="http://www.w3.org/2000/svg"><path d="m441.599 165c-2.699-10.201-5.999-20.4-10.499-30-34.501-79.501-114-135-206.1-135s-171.599 55.499-206.1 135c-4.501 9.6-7.8 19.799-10.499 30-5.7 19.2-8.401 39.3-8.401 60s2.999 40.8 8.401 60c2.699 10.199 6.299 20.4 10.8 30 30.3 69.3 95.099 121.5 173.699 132.599l17.1 2.701v-180.3h90c16.5 0 30 13.5 30 30h30c0-16.5 13.5-30 30-30h55.8l1.8-12.601c1.799-10.199 2.4-20.699 2.4-32.399 0-20.7-2.701-40.8-8.401-60z" fill="#57d9d4"/><g fill="#26bfbf"><path d="m300 270c16.5 0 30 13.5 30 30h30c0-16.5 13.5-30 30-30h55.8l1.8-12.601c1.799-10.199 2.4-20.699 2.4-32.399 0-20.7-2.701-40.8-8.401-60-2.699-10.201-5.999-20.4-10.499-30-34.501-79.501-114-135-206.1-135v270z"/><path d="m195 285v30h-175.8c-4.501-9.6-8.101-19.801-10.8-30z"/><path d="m441.599 165h-433.198c2.699-10.201 5.999-20.4 10.499-30h412.2c4.501 9.6 7.8 19.799 10.499 30z"/></g><path d="m225 165h216.599c-2.699-10.201-5.999-20.4-10.499-30h-206.1z" fill="#1a9ea6"/><path d="m188.848 442.061c-58.213-26.207-98.848-115.459-98.848-217.061 0-126.167 59.297-225 135-225s135 98.833 135 225c0 19.688-1.494 39.243-4.453 58.125l-29.648-4.629c2.724-17.358 4.101-35.361 4.101-53.496 0-105.703-48.076-195-105-195s-105 89.297-105 195c0 88.755 34.131 168.53 81.152 189.697z" fill="#26bfbf"/><path d="m330 225c0 18.135-1.377 36.138-4.102 53.496l29.648 4.629c2.96-18.882 4.454-38.437 4.454-58.125 0-126.167-59.297-225-135-225v30c56.924 0 105 89.297 105 195z" fill="#1a9ea6"/><path d="m210 15h30v240h-30z" fill="#26bfbf"/><path d="m225 15h15v240h-15z" fill="#1a9ea6"/><path d="m390 240c-17.999 0-33.9 7.8-45 20.4-11.1-12.6-27.001-20.4-45-20.4h-120v242h120c16.5 0 30 13.5 30 30h30c0-16.5 13.5-30 30-30h122v-242z" fill="#e6ffff"/><path d="m390 482h122v-242h-122c-17.999 0-33.9 7.8-45 20.4v251.6h15c0-16.5 13.5-30 30-30z" fill="#d9f2ff"/><path d="m240 300h60v30h-60z" fill="#596c76"/><path d="m240 360h60v30h-60z" fill="#596c76"/><path d="m390 300h60v30h-60z" fill="#465a61"/><path d="m390 360h60v30h-60z" fill="#465a61"/></svg>